<svg width="24" height="22" viewBox="0 0 24 22" fill="none" xmlns="http://www.w3.org/2000/svg">
<path d="M22.772 9.27412L17.154 7.08212L14.994 0.582115C14.892 0.275115 14.604 0.0681152 14.282 0.0681152C13.96 0.0681152 13.672 0.275116 13.57 0.581116L11.41 7.08112L5.78999 9.27312C5.50299 9.38512 5.313 9.66312 5.313 9.97312C5.313 10.2831 5.503 10.5581 5.791 10.6711L11.411 12.8631L13.571 19.3631C13.673 19.6691 13.961 19.8761 14.283 19.8761C14.605 19.8761 14.893 19.6691 14.995 19.3631L17.155 12.8631L22.775 10.6711C23.062 10.5591 23.252 10.2811 23.252 9.97112C23.252 9.66111 23.062 9.38612 22.774 9.27412H22.772ZM16.282 11.5941C16.074 11.6741 15.912 11.8441 15.842 12.0541L14.282 16.7491L12.722 12.0561C12.652 11.8461 12.492 11.6761 12.284 11.5941L8.129 9.97412L12.283 8.35212C12.491 8.27212 12.653 8.10212 12.723 7.89012L14.283 3.19712L15.843 7.89112C15.913 8.10312 16.073 8.27311 16.281 8.35411L20.436 9.97412L16.281 11.5961L16.282 11.5941ZM6.66299 2.58012H4.783V0.818115C4.783 0.404115 4.446 0.0681152 4.033 0.0681152C3.62 0.0681152 3.283 0.404115 3.283 0.818115V2.58012H1.5C1.086 2.58012 0.75 2.91612 0.75 3.33012C0.75 3.74412 1.086 4.08012 1.5 4.08012H3.282V5.84212C3.282 6.25612 3.618 6.59212 4.032 6.59212C4.446 6.59212 4.782 6.25612 4.782 5.84212V4.08012H6.662C7.077 4.08012 7.412 3.74412 7.412 3.33012C7.412 2.91612 7.077 2.58012 6.662 2.58012H6.66299ZM9.198 18.2021H8.09801V17.1861C8.09801 16.7721 7.76301 16.4361 7.34801 16.4361C6.93301 16.4361 6.59801 16.7721 6.59801 17.1861V18.2021H5.57001C5.15601 18.2021 4.82001 18.5381 4.82001 18.9521C4.82001 19.3661 5.15601 19.7021 5.57001 19.7021H6.60001V20.7181C6.60001 21.1321 6.93501 21.4681 7.35001 21.4681C7.76501 21.4681 8.10001 21.1321 8.10001 20.7181V19.7021H9.198C9.612 19.7021 9.948 19.3661 9.948 18.9521C9.948 18.5381 9.612 18.2021 9.198 18.2021Z" fill="black"/>
</svg>
